<?xml version="1.0" standalone="no"?>
<!DOCTYPE svg PUBLIC "-//W3C//DTD SVG 20010904//EN"
 "http://www.w3.org/TR/2001/REC-SVG-20010904/DTD/svg10.dtd">
<svg version="1.0" xmlns="http://www.w3.org/2000/svg"
 width="765.000000pt" height="995.000000pt" viewBox="0 0 765.000000 995.000000"
 preserveAspectRatio="xMidYMid meet">

<g transform="translate(0.000000,995.000000) scale(0.100000,-0.100000)"
fill="#000000" stroke="none">
<path d="M1191 6841 c-9 -6 -13 -61 -15 -217 l-2 -209 -67 -233 c-37 -128 -67
-238 -67 -245 0 -40 27 38 87 253 l68 245 0 193 c0 147 3 192 13 192 13 0 16
16 4 24 -4 2 -14 1 -21 -3z"/>
<path d="M1426 6486 c-4 -19 -16 -46 -27 -60 -11 -14 -19 -32 -17 -38 3 -7 17
5 31 27 29 44 46 105 29 105 -5 0 -13 -15 -16 -34z"/>
<path d="M1337 6298 c-10 -42 -87 -505 -112 -672 -28 -191 -31 -175 58 -352
31 -62 53 -114 50 -118 -4 -3 -16 -6 -28 -6 -33 0 -162 -47 -221 -80 -30 -16
-56 -30 -59 -30 -10 0 -63 124 -96 220 -33 101 -34 89 27 313 30 111 37 153
20 136 -10 -11 -86 -320 -86 -351 0 -42 39 -165 85 -265 32 -70 33 -72 14 -89
-42 -38 -9 -158 84 -301 l46 -71 -19 -63 c-25 -81 -36 -154 -23 -146 6 4 13
24 16 44 4 21 14 62 22 91 16 52 17 53 36 36 24 -22 27 1 3 27 -15 17 -13 25
31 116 39 80 62 112 125 176 81 81 110 95 110 52 0 -19 7 -26 38 -34 47 -14
122 -14 122 -1 0 6 -21 10 -47 10 -74 0 -93 8 -93 39 0 15 6 33 12 39 9 9 10
15 2 20 -10 6 -25 82 -17 82 2 0 8 -10 13 -22 9 -23 9 -23 9 3 1 14 -6 34 -14
45 -8 11 -15 41 -15 70 l0 51 43 -21 c30 -15 61 -21 107 -21 l64 0 23 40 c12
22 23 46 23 53 0 24 -15 11 -35 -31 -19 -40 -22 -42 -68 -45 -42 -3 -101 16
-167 55 -3 2 -4 -28 -2 -67 l4 -70 -31 0 c-31 0 -34 4 -103 146 l-71 145 12
87 c17 127 121 749 127 767 4 8 2 15 -4 15 -5 0 -12 -10 -15 -22z m83 -1216
c0 -55 -2 -59 -32 -77 -87 -51 -184 -169 -237 -288 l-28 -62 -38 59 c-47 73
-81 148 -94 204 -9 40 -7 46 21 78 34 39 165 107 248 128 30 8 79 15 108 15
l52 1 0 -58z"/>
<path d="M1690 6136 c-25 -18 -59 -49 -77 -69 -18 -20 -34 -37 -37 -37 -3 0
-6 12 -8 27 -4 39 -47 59 -85 41 -39 -18 -85 -91 -112 -177 -27 -85 -51 -226
-51 -296 1 -76 16 -34 23 62 11 152 63 312 120 371 55 57 93 35 85 -48 -3 -28
-2 -50 3 -50 4 0 17 15 28 33 30 49 134 145 165 153 16 4 32 2 38 -4 16 -16
12 -76 -7 -111 -18 -35 -18 -41 -4 -41 16 0 39 65 39 109 0 76 -47 91 -120 37z"/>
<path d="M1920 6093 c-49 -9 -48 -26 1 -19 56 8 76 -7 85 -65 7 -41 24 -54 24
-19 0 38 -28 90 -55 100 -15 6 -27 9 -28 9 -1 -1 -13 -4 -27 -6z"/>
<path d="M1961 5836 c-44 -63 -201 -206 -228 -206 -12 0 -33 -10 -47 -22 -28
-24 -47 -88 -27 -88 6 0 11 9 11 20 0 12 12 32 26 47 21 21 32 24 60 20 25 -4
34 -2 32 7 -2 7 40 55 93 107 89 87 143 159 120 159 -6 0 -24 -20 -40 -44z"/>
<path d="M1878 5590 c-3 -52 -13 -114 -22 -137 -8 -24 -12 -43 -7 -43 27 0 60
173 44 235 -9 37 -10 33 -15 -55z"/>
<path d="M1680 5472 c0 -15 64 -34 86 -25 15 6 13 9 -16 14 -19 3 -43 10 -52
14 -11 4 -18 3 -18 -3z"/>
<path d="M1742 5297 c-55 -42 -63 -58 -15 -34 29 16 80 64 72 70 -2 2 -28 -14
-57 -36z"/>
<path d="M1682 5180 c0 -19 2 -27 5 -17 2 9 2 25 0 35 -3 9 -5 1 -5 -18z"/>
<path d="M1683 5020 c0 -41 2 -58 4 -37 2 20 2 54 0 75 -2 20 -4 3 -4 -38z"/>
<path d="M1730 5051 c0 -5 10 -11 23 -15 27 -6 107 -62 107 -74 0 -4 -20 -13
-44 -20 -66 -17 -97 -48 -103 -105 -7 -58 12 -64 20 -6 7 54 29 76 96 95 50
15 55 15 66 0 7 -9 18 -16 25 -16 10 0 10 3 0 14 -23 29 75 33 253 10 29 -4
47 -3 47 4 0 12 -99 23 -226 24 -94 0 -101 2 -132 29 -53 47 -132 83 -132 60z"/>
<path d="M3346 4968 c-9 -12 -25 -50 -37 -85 -25 -75 -42 -90 -151 -133 -85
-34 -114 -50 -87 -50 18 0 174 64 204 84 12 8 31 42 44 78 42 115 71 140 71
61 0 -35 3 -44 10 -33 11 17 13 61 4 84 -9 23 -40 20 -58 -6z"/>
<path d="M3775 4971 c-26 -82 -495 -412 -853 -599 -132 -69 -120 -66 -237 -46
-67 11 -27 -12 44 -25 l63 -12 84 40 c176 84 523 298 664 409 36 28 94 72 130
99 59 44 130 122 130 144 0 16 -19 9 -25 -10z"/>
<path d="M2380 4885 c0 -3 10 -15 21 -26 20 -20 21 -29 16 -103 -10 -132 -75
-301 -138 -362 -28 -27 -31 -27 -67 -15 -20 7 -79 33 -131 57 -51 24 -98 44
-102 44 -23 0 -4 -19 39 -39 45 -21 47 -24 47 -64 2 -180 6 -247 16 -247 9 0
10 38 6 140 -3 77 -4 140 -3 140 1 0 33 -13 71 -30 91 -38 106 -38 145 7 103
116 175 406 119 477 -18 23 -39 34 -39 21z"/>
<path d="M2470 4751 c0 -8 21 -18 210 -98 86 -36 111 -43 142 -38 21 4 38 11
38 16 0 5 -17 7 -38 3 -39 -6 -141 30 -274 97 -60 30 -78 35 -78 20z"/>
<path d="M2370 4402 c0 -6 9 -13 20 -16 11 -3 29 -9 40 -12 11 -3 20 -1 20 4
0 6 -11 13 -24 16 -13 3 -31 9 -40 12 -9 3 -16 1 -16 -4z"/>
<path d="M1033 3825 c3 -99 13 -222 22 -273 l15 -93 -40 -305 c-22 -167 -40
-317 -39 -332 l1 -27 8 25 c5 14 25 160 46 325 26 206 42 304 51 312 10 8 11
13 3 18 -7 4 -9 18 -6 31 4 16 2 23 -6 22 -16 -4 -24 50 -38 277 -7 105 -14
192 -17 195 -3 3 -3 -76 0 -175z"/>
<path d="M2056 3789 c-32 -252 -39 -307 -46 -325 -11 -29 -109 -43 -357 -51
-106 -3 -193 -10 -193 -15 0 -20 410 -3 521 23 l46 10 17 102 c26 162 37 280
27 290 -6 6 -12 -8 -15 -34z"/>
<path d="M1130 3419 c0 -5 -31 -249 -70 -542 -38 -292 -83 -642 -100 -777 -17
-135 -37 -281 -46 -325 -47 -243 -135 -578 -220 -837 l-55 -167 -25 11 c-30
14 -30 13 20 153 67 191 178 597 226 831 23 111 73 494 66 502 -9 9 -14 -19
-36 -193 -24 -203 -47 -319 -106 -560 -70 -281 -190 -673 -214 -698 -4 -5 -22
-1 -39 7 -56 29 -32 1 32 -37 34 -21 89 -55 122 -76 33 -20 90 -54 126 -74
l67 -37 180 283 c218 342 364 581 402 656 15 31 40 108 55 171 15 63 31 121
34 128 6 10 271 -1278 271 -1310 0 -5 -6 -8 -14 -8 -17 0 -8 -39 -106 455 -45
226 -84 412 -86 414 -16 17 -4 -54 71 -429 47 -234 85 -428 85 -432 0 -4 -13
-8 -30 -8 -16 0 -30 -4 -30 -10 0 -6 26 -10 59 -10 50 0 59 -3 64 -20 5 -19
14 -20 176 -20 164 0 171 1 171 20 0 11 7 20 15 20 8 0 15 5 15 10 0 6 -6 10
-14 10 -10 0 -17 15 -20 43 -3 23 -30 670 -61 1437 -31 767 -57 1395 -58 1396
-1 1 -38 -5 -82 -14 -121 -23 -558 -22 -683 1 -51 9 -109 24 -128 32 -18 8
-34 10 -34 4z"/>
<path d="M470 742 c0 -4 65 -45 145 -91 165 -94 152 -73 133 -227 -9 -75 -9
-100 2 -122 7 -15 15 -22 17 -15 2 7 0 19 -5 28 -8 15 -5 51 14 193 5 40 7 42
32 36 44 -11 17 9 -133 94 -178 101 -205 114 -205 104z"/>
<path d="M447 573 c-12 -22 -69 -73 -146 -129 -2 -2 74 -93 169 -204 l173
-200 144 0 c78 0 143 3 143 6 0 15 -75 125 -78 115 -2 -7 8 -30 22 -51 14 -22
26 -42 26 -45 0 -3 -57 -5 -127 -4 l-128 0 -155 182 c-85 100 -156 186 -157
192 -2 5 22 28 51 50 53 38 97 97 84 111 -4 3 -13 -7 -21 -23z"/>
<path d="M1710 431 c0 -6 19 -11 42 -13 l42 -3 22 -79 c21 -74 21 -83 8 -165
-8 -47 -14 -96 -14 -108 l0 -23 226 0 c147 0 223 3 219 10 -4 6 -88 10 -219
10 l-213 0 17 99 c16 98 16 99 -7 177 -12 44 -23 80 -23 82 0 1 70 2 156 2
l157 0 -7 -59 -7 -59 201 -118 c160 -95 196 -120 176 -122 -46 -6 -28 -22 24
-22 28 0 50 4 50 8 0 4 -95 64 -211 132 -116 69 -214 131 -216 138 -3 7 -2 32
1 57 7 43 9 45 42 45 19 0 34 5 34 10 0 6 -90 10 -250 10 -150 0 -250 -4 -250
-9z"/>
</g>
</svg>
